<?xml version="1.0" encoding="iso-8859-1"?>
<!-- Uploaded to: SVG Repo, www.svgrepo.com, Generator: SVG Repo Mixer Tools -->
<svg height="800px" width="800px" version="1.1" id="Layer_1" xmlns="http://www.w3.org/2000/svg" xmlns:xlink="http://www.w3.org/1999/xlink" 
	 viewBox="0 0 460 460" xml:space="preserve">
<g id="XMLID_3028_">
	<path id="XMLID_497_" style="fill:#F5F7F7;" d="M460,250v20v10v20c0,5.523-4.477,10-10,10H250v60h20c11.046,0,20,8.954,20,20v40h40
		c5.523,0,10,4.477,10,10v10c0,5.523-4.477,10-10,10h-40H170h-40c-5.523,0-10-4.477-10-10v-10c0-5.523,4.477-10,10-10h40v-40
		c0-11.046,8.954-20,20-20h20v-20v-40H10c-5.523,0-10-4.477-10-10v-20v-10v-20c0-11.046,8.954-20,20-20h30L150,90h-20
		c-5.523,0-10-4.477-10-10V70c0-5.523,4.477-10,10-10l0,0c0-33.137,26.863-60,60-60h40h40c33.137,0,60,26.863,60,60l0,0
		c5.523,0,10,4.477,10,10v10c0,5.523-4.477,10-10,10h-20l100,140h30C451.046,230,460,238.954,460,250z"/>
	<path id="XMLID_535_" style="fill:#D8D8D8;" d="M460,250v20v10v20c0,5.523-4.477,10-10,10H250v60h20c11.046,0,20,8.954,20,20v40h40
		c5.523,0,10,4.477,10,10v10c0,5.523-4.477,10-10,10h-40H170h-40c-5.523,0-10-4.477-10-10v-10c0-5.523,4.477-10,10-10h40v-40
		c0-11.046,8.954-20,20-20h20v-20v-40H10c-5.523,0-10-4.477-10-10v-20v-10v-20c0-11.046,8.954-20,20-20h120h180h120
		C451.046,230,460,238.954,460,250z"/>
	<path id="XMLID_1237_" style="fill:#EFEFEF;" d="M170,430v10v20h-40c-5.523,0-10-4.477-10-10v-10c0-5.523,4.477-10,10-10H170z"/>
	<path id="XMLID_1230_" style="fill:#CECECE;" d="M330,430c5.523,0,10,4.477,10,10v10c0,5.523-4.477,10-10,10h-40v-20v-10H330z"/>
	<path id="XMLID_1809_" style="fill:#939393;" d="M340,440v10c0,5.523-4.477,10-10,10h-40H170h-40c-5.523,0-10-4.477-10-10v-10h50
		h120H340z"/>
	<path id="XMLID_1817_" style="fill:#ADADAD;" d="M170,460h-40c-5.523,0-10-4.477-10-10v-10h50V460z"/>
	<path id="XMLID_1818_" style="fill:#828282;" d="M290,440h50v10c0,5.523-4.477,10-10,10h-40V440z"/>
	<path id="XMLID_1726_" style="fill:#E4F1F2;" d="M410,230v20H50v-20L150,90h-20c-5.523,0-10-4.477-10-10V70c0-5.523,4.477-10,10-10
		c0-33.137,26.863-60,60-60h40h40c33.137,0,60,26.863,60,60c5.523,0,10,4.477,10,10v10c0,5.523-4.477,10-10,10h-20L410,230z"/>
	<path id="XMLID_832_" style="fill:#F5F7F7;" d="M320,230v20H140v-20l30-150h120L320,230z"/>
	<path id="XMLID_1728_" style="fill:#78988D;" d="M460,250v30H0v-30c0-11.046,8.954-20,20-20h420C451.046,230,460,238.954,460,250z"
		/>
	<path id="XMLID_1785_" style="fill:#A1D3CB;" d="M320,230v50H140v-50H320z"/>
	<path id="XMLID_1803_" style="fill:#828282;" d="M460,270v30c0,5.523-4.477,10-10,10H250v60h20c11.046,0,20,8.954,20,20v40h-60h-60
		v-40c0-11.046,8.954-20,20-20h20v-60H10c-5.523,0-10-4.477-10-10v-30H460z"/>
	<path id="XMLID_1238_" style="fill:#939393;" d="M230,430h-60v-40c0-11.046,8.954-20,20-20h40V430z"/>
	<path id="XMLID_1819_" style="fill:#666666;" d="M210,350L210,350v-40h40L210,350z"/>
	<path id="XMLID_1829_" style="fill:#666666;" d="M460,280H0v-10h460V280z"/>
	<path id="XMLID_1277_" style="fill:#C6C6C6;" d="M340,70h-50H170h-50c0-5.523,4.477-10,10-10l0,0c0-33.137,26.863-60,60-60h40l0,0
		l0,0h40c33.137,0,60,26.863,60,60l0,0C335.523,60,340,64.477,340,70z"/>
	<path id="XMLID_1831_" style="fill:#E0E0E0;" d="M230,0c-33.137,0-60,26.863-60,60v10h-40V60c0-33.137,26.863-60,60-60H230z"/>
	<path id="XMLID_1897_" style="fill:#B7B7B7;" d="M270,0c33.137,0,60,26.863,60,60v10h-40V60c0-33.137-26.863-60-60-60H270z"/>
	<path id="XMLID_1805_" style="fill:#D8D8D8;" d="M340,70v10c0,5.523-4.477,10-10,10h-40H170h-40c-5.523,0-10-4.477-10-10V70
		c0-5.523,4.477-10,10-10h40h120h40C335.523,60,340,64.477,340,70z"/>
	<path id="XMLID_1899_" style="fill:#EFEFEF;" d="M170,60v10v20h-40c-5.523,0-10-4.477-10-10V70c0-5.523,4.477-10,10-10H170z"/>
	<path id="XMLID_1926_" style="fill:#CECECE;" d="M340,70v10c0,5.523-4.477,10-10,10h-40V70V60h40C335.523,60,340,64.477,340,70z"/>
	<path id="XMLID_1560_" style="fill:#A1D3CB;" d="M190,80v20c0,5.523-4.477,10-10,10h-10h-10c-5.523,0-10-4.477-10-10V80h20H190z"/>
	<path id="XMLID_1575_" style="fill:#78988D;" d="M190,80v20c0,5.523-4.477,10-10,10h-10V80H190z"/>
	<path id="XMLID_1598_" style="fill:#A1D3CB;" d="M250,80v20c0,5.523-4.477,10-10,10h-10h-10c-5.523,0-10-4.477-10-10V80h20H250z"/>
	<path id="XMLID_1656_" style="fill:#78988D;" d="M250,80v20c0,5.523-4.477,10-10,10h-10V80H250z"/>
	<path id="XMLID_1669_" style="fill:#A1D3CB;" d="M310,80v20c0,5.523-4.477,10-10,10h-10h-10c-5.523,0-10-4.477-10-10V80h20H310z"/>
	<path id="XMLID_1686_" style="fill:#78988D;" d="M310,80v20c0,5.523-4.477,10-10,10h-10V80H310z"/>
	<path id="XMLID_1668_" style="fill:#939393;" d="M340,70v10c0,5.523-4.477,10-10,10h-40H170h-40c-5.523,0-10-4.477-10-10V70h50h120
		H340z"/>
	<path id="XMLID_226_" style="fill:#ADADAD;" d="M170,90h-40c-5.523,0-10-4.477-10-10V70h50V90z"/>
	<path id="XMLID_1673_" style="fill:#828282;" d="M330,90h-40V70h50v10C340,85.523,335.523,90,330,90z"/>
</g>
</svg>