<?xml version="1.0" encoding="iso-8859-1"?>
<!-- Uploaded to: SVG Repo, www.svgrepo.com, Generator: SVG Repo Mixer Tools -->
<svg height="800px" width="800px" version="1.1" id="Layer_1" xmlns="http://www.w3.org/2000/svg" xmlns:xlink="http://www.w3.org/1999/xlink" 
	 viewBox="0 0 481.292 481.292" xml:space="preserve">
<path style="fill:#DF5349;" d="M318.652,60.246c33.68,33.68,33.68,88.32,0,122l-142.4,142.4l-0.32-0.32l-0.32,0.32l-142.4-142.4
	c-33.68-33.68-33.68-88.32,0-122c33.68-33.76,88.32-33.76,122.08,0l20.64,20.64l20.64-20.64
	C230.332,26.486,284.972,26.486,318.652,60.246z"/>
<path d="M324.316,55.462C306.532,37.63,282.868,28.646,257.7,28.646c-0.024,0-0.04,0-0.056,0c-25.184,0-48.888,8.968-66.72,26.808
	l-14.992,14.544l-14.984-14.336c-17.84-17.84-41.528-27.016-66.72-27.016c-0.016,0-0.04,0-0.056,0
	c-25.168,0-48.832,8.984-66.608,26.808c-36.752,36.752-36.752,96.128,0,132.88l142.4,142.184c1.216,1.224,2.784,1.808,4.424,2.016
	c0.616,0.144,1.24,0.168,1.872,0.168c2.048,0,4.096-0.808,5.656-2.368l142.4-141.984C361.06,151.598,361.06,92.214,324.316,55.462z
	 M312.46,176.59l-136.8,137.064L38.74,176.59C8.228,146.078,8.292,97.278,38.812,66.758c14.768-14.8,34.464-22.112,55.368-22.112
	c0.016,0,0.024,0,0.048,0c20.912,0,40.592,7.304,55.408,22.12l15.296,14.864l-26.96,29.904c-2.944,3.296-2.664,8.248,0.624,11.192
	c1.528,1.368,3.432,1.984,5.336,1.984c2.2,0,4.384-0.928,5.968-2.688l31.968-35.728l20.368-19.512
	c14.808-14.832,34.488-22.136,55.4-22.136c0.016,0,0.032,0,0.048,0c20.904,0,38.248,7.312,54.248,22.112v-0.424
	C343.932,96.846,342.98,146.078,312.46,176.59z"/>
<path d="M207.932,396.646h-24v-40c0-4.416-3.584-8-8-8s-8,3.584-8,8v40h-24c-4.416,0-8,3.584-8,8s3.584,8,8,8h24v32
	c0,4.416,3.584,8,8,8s8-3.584,8-8v-32h24c4.416,0,8-3.584,8-8S212.348,396.646,207.932,396.646z"/>
<path d="M122.972,141.286c-2.96-1.2-6.48-0.48-8.72,1.68c-1.44,1.52-2.32,3.6-2.32,5.68s0.88,4.16,2.32,5.68
	c1.52,1.44,3.6,2.32,5.68,2.32c1.04,0,2.08-0.24,3.04-0.64c0.96-0.4,1.84-0.96,2.64-1.68c1.44-1.52,2.32-3.6,2.32-5.68
	s-0.88-4.16-2.32-5.68C124.812,142.246,124.012,141.686,122.972,141.286z"/>
<path style="fill:#F36162;" d="M451.452,107.606c29.12,28.64,29.12,75.2,0,103.84l-123.2,121.2l-0.32-0.32l-0.32,0.32l-123.2-121.2
	c-29.12-28.64-29.12-75.2,0-103.84c29.2-28.72,76.48-28.72,105.6,0l17.92,17.6l17.92-17.6
	C374.972,78.886,422.252,78.886,451.452,107.606z"/>
<path d="M457.06,101.902c-32.256-31.72-84.664-31.728-116.816,0l-12.312,12.088l-12.304-12.08
	c-32.168-31.728-84.568-31.736-116.824-0.008c-15.624,15.368-24.232,35.832-24.232,57.624s8.608,42.256,24.232,57.624l123.2,121.2
	c1.216,1.2,2.768,1.88,4.392,2.08c0.608,0.144,1.232,0.216,1.856,0.216c2.024,0,4.056-0.768,5.608-2.296l123.2-121.2
	c15.624-15.368,24.232-35.832,24.232-57.624S472.684,117.27,457.06,101.902z M445.844,205.742l-117.912,116l-117.912-116
	c-12.544-12.336-19.448-28.752-19.448-46.216c0-17.472,6.904-33.88,19.448-46.216c13.024-12.816,30.128-19.224,47.216-19.224
	s34.168,6.408,47.168,19.224l17.92,17.6c0.024,0.024,0.048,0.024,0.072,0.048l31.928,31.392c1.56,1.528,3.584,2.296,5.608,2.296
	c2.072,0,4.136-0.8,5.704-2.392c3.096-3.152,3.056-8.216-0.096-11.312l-26.184-25.744l12.112-11.896
	c25.984-25.624,68.32-25.632,94.368,0.008c12.544,12.336,19.448,28.752,19.448,46.216
	C465.292,176.99,458.388,193.406,445.844,205.742z"/>
<path d="M359.932,404.646h-24v-40c0-4.416-3.584-8-8-8s-8,3.584-8,8v40h-24c-4.416,0-8,3.584-8,8s3.584,8,8,8h24v24
	c0,4.416,3.584,8,8,8s8-3.584,8-8v-24h24c4.416,0,8-3.584,8-8S364.348,404.646,359.932,404.646z"/>
<path d="M389.612,174.966c-0.4-0.32-0.8-0.64-1.2-0.96c-0.48-0.32-0.96-0.56-1.44-0.72c-0.48-0.24-0.96-0.4-1.44-0.48
	c-2.64-0.56-5.36,0.32-7.28,2.16c-0.72,0.8-1.28,1.68-1.68,2.64c-0.4,0.96-0.64,2-0.64,3.04c0,2.08,0.88,4.16,2.32,5.68
	c1.52,1.44,3.6,2.32,5.68,2.32c0.48,0,1.04-0.08,1.6-0.16c0.48-0.08,0.96-0.24,1.44-0.48c0.48-0.16,0.96-0.4,1.44-0.72
	c0.4-0.24,0.8-0.64,1.2-0.96c1.44-1.52,2.32-3.6,2.32-5.68c0-1.04-0.24-2.08-0.64-3.04
	C390.892,176.566,390.332,175.766,389.612,174.966z"/>
</svg>