<?xml version="1.0" encoding="iso-8859-1"?>
<!-- Uploaded to: SVG Repo, www.svgrepo.com, Generator: SVG Repo Mixer Tools -->
<!DOCTYPE svg PUBLIC "-//W3C//DTD SVG 1.1//EN" "http://www.w3.org/Graphics/SVG/1.1/DTD/svg11.dtd">
<svg fill="#000000" height="800px" width="800px" version="1.1" id="Capa_1" xmlns="http://www.w3.org/2000/svg" xmlns:xlink="http://www.w3.org/1999/xlink" 
	 viewBox="0 0 282.019 282.019" xml:space="preserve">
<path d="M192.357,0H89.662C53.188,0,23.514,29.674,23.514,66.148l0.022,71.87c0.457,10.538,15.263,19,33.474,19
	c18.211,0,33.017-8.462,33.474-19l0.031-61.014c0-5.526,4.479-10.005,10.005-10.005H181.5c5.526,0,10.005,4.479,10.005,10.005
	v35.293c0,3.648-1.986,7.008-5.183,8.766l-33.719,18.548c-21.136,11.627-34.266,33.835-34.266,57.959v19.52
	c0,20.261,5.186,40.185,15.063,57.876c2.431,4.354,7.027,7.051,12.013,7.051h12.848c4.986,0,9.582-2.698,12.013-7.051
	c9.878-17.691,15.063-37.615,15.063-57.876v-13.102c0-3.648,1.986-7.008,5.183-8.766l33.719-18.548
	c21.136-11.627,34.266-33.835,34.266-57.959V66.148C258.505,29.674,228.831,0,192.357,0z M33.896,104.575V66.158
	c0-4.143,3.357-7.5,7.5-7.5s7.5,3.358,7.5,7.5v38.417c0,4.143-3.357,7.5-7.5,7.5S33.896,108.718,33.896,104.575z M74.575,138.019
	c-2.397,3.263-9.351,5.625-17.565,5.625c-10.247,0-18.466-3.67-18.466-8.125c0-4.487,8.267-8.125,18.466-8.125
	c10.198,0,18.466,3.638,18.466,8.125C75.475,136.391,75.154,137.23,74.575,138.019z"/>
</svg>