<?xml version="1.0" encoding="utf-8"?>
<!-- Uploaded to: SVG Repo, www.svgrepo.com, Generator: SVG Repo Mixer Tools -->
<svg fill="#000000" version="1.1" id="Layer_1" xmlns="http://www.w3.org/2000/svg" xmlns:xlink="http://www.w3.org/1999/xlink" 
	 width="800px" height="800px" viewBox="0 0 260 221" enable-background="new 0 0 260 221" xml:space="preserve">
<path d="M254.245,11.156c-4.123-6.013-10.932-9.473-18.222-9.277L75.962,6.357c-17.581,0.465-33.817,7.853-45.716,20.804
	c-11.9,12.951-17.891,29.752-16.87,47.31l0.857,14.746c0.926,15.952,0.05,32.028-2.607,47.781L2.33,192.117
	c-1.703,10.1,3.293,19.994,12.451,24.58c11.119,5.568,24.071-0.191,29.053-6.906l6.938-9.356c6.741,4.656,15.303,6.65,23.954,4.831
	c14.588-3.068,24.594-15.945,24.579-30.284c0.001,0,0.007-0.003,0.007-0.003c0-2.282,0.001-11.231,0.675-22.023
	c15.252-8.746,34.633-19.343,50.355-26.251c-1.472,7.316-3.803,15.112-6.332,23.563c-6.2,20.72-13.204,41.181-10.67,68.862h13.837
	c-2.622-25.58,4.09-45.082,10.026-64.914c3.437-11.485,6.73-22.494,7.981-33.175c1.336-0.399,2.597-0.732,3.77-0.988
	c28.77-6.29,55.129-32.099,67.447-53.416c4.942-8.554,19.928-35.14,19.928-35.14C259.147,24.772,258.367,17.169,254.245,11.156z
	 M151.706,117.589c-15.449,6.358-34.92,16.765-50.964,25.853c0.926-9.545,3.46-21.677,4.752-27.104
	c1.025-4.303,1.468-8.194-0.477-13.534c-0.77-2.113-0.766-4.779,0.907-7.298c3.097-3.53,7.097-6.398,11.62-8.238
	c7.133-2.902,14.476-2.9,20.679,0.01c8.332,3.908,13.323,12.464,13.694,23.474C151.992,112.99,151.912,115.267,151.706,117.589z
	 M249.154,28.254c-1.422,2.517-14.882,26.337-19.567,34.445c-11.479,19.868-35.876,43.885-62.313,49.666
	c-0.506,0.111-1.03,0.237-1.563,0.372c0.004-0.818-0.003-1.634-0.031-2.449c-0.544-16.123-8.621-29.386-21.609-35.478
	c-9.717-4.558-20.982-4.665-31.715-0.298c-5.734,2.332-10.908,5.837-15.143,10.154c-3.513,2.761-4.718,4.888-14.061,8.467
	c-0.026,0.01-0.048,0.021-0.074,0.031c-2.468,0.774-4.666,2.045-6.519,3.671c-0.061,0.052-0.128,0.096-0.188,0.15
	c-15.323,13.738-39.116,40.734-38.923,76.438c0.055,10.112,4.146,17.907,7.442,21.733l-7.377,9.947
	c-4.449,6.001-12.522,7.919-19.196,4.564c-6.046-3.041-9.353-9.568-8.227-16.242l9.296-55.119
	c2.754-16.334,3.664-33.004,2.703-49.545l-0.857-14.746c-0.896-15.413,4.363-30.162,14.809-41.53s24.698-17.854,40.136-18.262
	c0,0,160.324-4.484,160.452-4.484c4.458,0,8.595,2.173,11.127,5.866C250.318,19.345,250.835,24.057,249.154,28.254z"/>
</svg>