<!DOCTYPE svg PUBLIC "-//W3C//DTD SVG 1.1//EN" "http://www.w3.org/Graphics/SVG/1.1/DTD/svg11.dtd">
<!-- Uploaded to: SVG Repo, www.svgrepo.com, Transformed by: SVG Repo Mixer Tools -->
<svg width="800px" height="800px" viewBox="0 0 20 20" xmlns="http://www.w3.org/2000/svg" fill="#000000">
<g id="SVGRepo_bgCarrier" stroke-width="0"/>
<g id="SVGRepo_tracerCarrier" stroke-linecap="round" stroke-linejoin="round"/>
<g id="SVGRepo_iconCarrier"> <g id="hospital-2" transform="translate(-2 -2)"> <path id="secondary" fill="#ffaa00" d="M20,3H10A1,1,0,0,0,9,4V21h4V15h4v6h4V4A1,1,0,0,0,20,3Z"/> <path id="primary" d="M15,11V7m2,2H13m0,12h4V15H13ZM9,21H21V4a1,1,0,0,0-1-1H10A1,1,0,0,0,9,4ZM9,6H4A1,1,0,0,0,3,7V20a1,1,0,0,0,1,1H9ZM3,21H9V6H4A1,1,0,0,0,3,7Z" fill="none" stroke="#000000" stroke-linecap="round" stroke-linejoin="round" stroke-width="2"/> </g> </g>
</svg>